<svg xmlns="http://www.w3.org/2000/svg" viewBox="0 0 64 64" width="64" height="64">
  <rect width="64" height="64" rx="14" fill="#0b0e16"/>
  <g transform="translate(9.5,9)">
    <g fill="#d8b25a">
      <ellipse cx="22.5" cy="37" rx="12" ry="3"/>
      <path d="M30.5 35 C32.5 26 31.5 18.5 25 14.5 C24.2 12.8 24.8 11 26 10.2 C27 11.8 28.6 11.2 28.5 9.6 C28.3 7 25 5.4 21.6 6.1 C17.4 7 13.4 10.6 12.2 16.2 C11.7 18.7 10.2 19.8 9.2 21.3 C8.3 22.7 8.9 24.2 10.5 24 C12 23.8 13.2 22.2 14.8 22 C16.2 21.8 16.8 23 16.2 24.4 C15.2 26.8 14.2 28.4 14 31 C13.9 32.6 14 34 14.3 35 Z"/>
    </g>
    <circle cx="18.4" cy="13.6" r="1.2" fill="#0b0e16"/>
  </g>
</svg>
